<svg display="none" xmlns="http://www.w3.org/2000/svg">

    <symbol id="exit" viewBox="0 0 34 34">
        <g clip-path="url(#clip0_4872_106274)">
            <path fill-rule="evenodd" clip-rule="evenodd" d="M7.0835 4.24854H7.9335H21.9165H22.7665V5.09854V12.228V13.078H21.0665V12.228V5.94854H11.2637L17.8055 8.41433V24.2107H17.8058H21.0665V18.2737V17.4237H22.7665V18.2737V25.0607V25.9107H21.9165H17.8058H17.8055V27.9438V29.7514L16.1055 29.137L7.17913 25.9107H7.0835V25.0607V5.09854V4.24854ZM8.81261 24.6935V6.84138L16.1055 9.59031V27.3293L8.81261 24.6935ZM25.6609 12.8562C25.3815 12.5823 24.933 12.5869 24.6592 12.8663C24.3854 13.1457 24.3899 13.5941 24.6693 13.8679L25.5633 14.744L19.0801 14.744C18.6889 14.744 18.3718 15.0612 18.3718 15.4524C18.3718 15.8436 18.6889 16.1607 19.0801 16.1607L25.5633 16.1607L24.629 17.0763C24.3496 17.3501 24.3451 17.7986 24.6189 18.078C24.8927 18.3574 25.3412 18.3619 25.6206 18.0881L27.7938 15.9583L28.31 15.4524L27.7938 14.9465L25.6609 12.8562Z"/>
        </g>
    </symbol>

    <symbol id="calendar" viewBox="0 0 18 18">
        <path d="M6.43123 9.4231H3.86282V11.9617H6.43123V9.4231Z"/>
        <path d="M3.86282 13.231H6.43123V15.7696H3.86282V13.231Z"/>
        <path d="M10.2838 9.4231H7.71543V11.9617H10.2838V9.4231Z"/>
        <path d="M7.71543 13.231H10.2838V15.7696H7.71543V13.231Z"/>
        <path d="M14.1364 9.4231H11.568V11.9617H14.1364V9.4231Z"/>
        <path d="M11.568 13.231H14.1364V15.7696H11.568V13.231Z"/>
        <path fill-rule="evenodd" clip-rule="evenodd" d="M12.9691 0.538037C12.9691 0.240888 12.7251 0 12.4243 0C12.1234 0 11.8795 0.240888 11.8795 0.538037V1.69239H6.11977V0.538037C6.11977 0.240888 5.87586 0 5.57499 0C5.27411 0 5.0302 0.240888 5.0302 0.538037V1.69239H3.00706C1.76011 1.69239 0.75 2.69139 0.75 3.92282V15.7696C0.75 17.001 1.76011 18 3.00706 18H14.9929C16.2399 18 17.25 17.001 17.25 15.7696V3.92282C17.25 2.69139 16.2399 1.69239 14.9929 1.69239H12.9691V0.538037ZM16.1604 6.76957V3.92282C16.1604 3.28488 15.6373 2.76846 14.9929 2.76846H12.9691V3.92282C12.9691 4.21997 12.7251 4.46086 12.4243 4.46086C12.1234 4.46086 11.8795 4.21997 11.8795 3.92282V2.76846H6.11977V3.92282C6.11977 4.21997 5.87586 4.46086 5.57499 4.46086C5.27411 4.46086 5.0302 4.21997 5.0302 3.92282V2.76846H3.00706C2.36268 2.76846 1.83957 3.28488 1.83957 3.92282V6.76957H16.1604ZM1.83957 7.84564H16.1604V15.7696C16.1604 16.4075 15.6373 16.9239 14.9929 16.9239H3.00706C2.36268 16.9239 1.83957 16.4075 1.83957 15.7696V7.84564Z"/>
    </symbol>

    <symbol id="close" viewBox="0 0 18 18">
        <path d="M10.2593 8.59066L17.6178 15.9492L16.3999 17.1672L9.04136 9.80862L1.59979 17.2502L0.381836 16.0322L7.82341 8.59066L0.85843 1.62567L2.07639 0.407715L9.04136 7.37271L15.9233 0.49077L17.1412 1.70873L10.2593 8.59066Z"/>
    </symbol>

    <symbol id="arrow-left" viewBox="0 0 10 8">
        <path d="M0.646446 4.35355C0.451184 4.15829 0.451184 3.84171 0.646446 3.64645L3.82843 0.464467C4.02369 0.269204 4.34027 0.269204 4.53553 0.464467C4.7308 0.659729 4.7308 0.976311 4.53553 1.17157L1.70711 4L4.53553 6.82843C4.7308 7.02369 4.7308 7.34027 4.53553 7.53553C4.34027 7.7308 4.02369 7.7308 3.82843 7.53553L0.646446 4.35355ZM10 4.5L1 4.5L1 3.5L10 3.5L10 4.5Z"/>
    </symbol>

    <symbol id="arrow-right" viewBox="0 0 10 8">
        <path d="M9.35355 4.35355C9.54882 4.15829 9.54882 3.84171 9.35355 3.64645L6.17157 0.464467C5.97631 0.269204 5.65973 0.269204 5.46447 0.464467C5.2692 0.659729 5.2692 0.976311 5.46447 1.17157L8.29289 4L5.46447 6.82843C5.2692 7.02369 5.2692 7.34027 5.46447 7.53553C5.65973 7.7308 5.97631 7.7308 6.17157 7.53553L9.35355 4.35355ZM-4.37114e-08 4.5L9 4.5L9 3.5L4.37114e-08 3.5L-4.37114e-08 4.5Z"/>
    </symbol>


    <symbol id="scial-fb" viewBox="0 0 32 32">
        <circle cx="16" cy="16" r="16" fill="#C3C9E1"/>
        <path d="M21.25 7H18.3864C17.1206 7 15.9066 7.47411 15.0115 8.31802C14.1165 9.16193 13.6136 10.3065 13.6136 11.5V14.2H10.75V17.8H13.6136V25H17.4318V17.8H20.2955L21.25 14.2H17.4318V11.5C17.4318 11.2613 17.5324 11.0324 17.7114 10.8636C17.8904 10.6948 18.1332 10.6 18.3864 10.6H21.25V7Z"/>
    </symbol>

    <symbol id="scial-inst" viewBox="0 0 32 32">
        <circle cx="16" cy="16" r="16" fill="#C3C9E1"/>
        <path d="M20.2964 10.9038C19.8546 10.9038 19.4964 11.262 19.4964 11.7038C19.4964 12.1457 19.8546 12.5038 20.2964 12.5038H20.3039C20.7458 12.5038 21.1039 12.1457 21.1039 11.7038C21.1039 11.262 20.7458 10.9038 20.3039 10.9038H20.2964Z" fill="#384B9A"/>
        <path fill-rule="evenodd" clip-rule="evenodd" d="M16.6096 12.0842C15.793 11.9631 14.9591 12.1026 14.2264 12.4828C13.4937 12.863 12.8995 13.4645 12.5283 14.2019C12.1572 14.9392 12.028 15.7748 12.1592 16.5898C12.2903 17.4048 12.6751 18.1577 13.2588 18.7414C13.8425 19.3251 14.5954 19.7099 15.4104 19.8411C16.2254 19.9722 17.061 19.843 17.7984 19.4719C18.5357 19.1008 19.1373 18.5066 19.5175 17.7739C19.8977 17.0412 20.0371 16.2072 19.9161 15.3907C19.7925 14.5577 19.4044 13.7866 18.809 13.1912C18.2136 12.5958 17.4425 12.2077 16.6096 12.0842ZM14.9633 13.903C15.3973 13.6778 15.8912 13.5952 16.3749 13.6669C16.8682 13.7401 17.325 13.9699 17.6776 14.3226C18.0303 14.6753 18.2602 15.132 18.3334 15.6254C18.4051 16.109 18.3225 16.603 18.0973 17.037C17.8721 17.471 17.5158 17.8229 17.079 18.0427C16.6423 18.2626 16.1473 18.3391 15.6646 18.2614C15.1819 18.1837 14.7359 17.9558 14.3902 17.6101C14.0445 17.2643 13.8165 16.8184 13.7389 16.3356C13.6612 15.8529 13.7377 15.358 13.9575 14.9212C14.1773 14.4845 14.5293 14.1282 14.9633 13.903Z"/>
        <path fill-rule="evenodd" clip-rule="evenodd" d="M7.38867 12.0944C7.38867 9.4955 9.4955 7.38867 12.0944 7.38867H19.9058C22.5047 7.38867 24.6116 9.4955 24.6116 12.0944V19.9058C24.6116 20.8549 24.3306 21.7384 23.8473 22.4776C23.8294 22.6237 23.7374 22.7468 23.6101 22.8084C22.7486 23.9062 21.4096 24.6116 19.9058 24.6116H12.0944C9.4955 24.6116 7.38867 22.5047 7.38867 19.9058V12.0944ZM12.0944 8.98867C10.3792 8.98867 8.98867 10.3792 8.98867 12.0944V19.9058C8.98867 21.6211 10.3792 23.0116 12.0944 23.0116H19.9058C21.6211 23.0116 23.0116 21.6211 23.0116 19.9058V12.0944C23.0116 10.3792 21.6211 8.98867 19.9058 8.98867H12.0944Z"/>
    </symbol>

    <symbol id="scial-vk" viewBox="0 0 32 32">
        <circle cx="16" cy="16" r="16" fill="#C3C9E1"/>
        <path fill-rule="evenodd" clip-rule="evenodd" d="M9.64437 10.75H7.67517C7.11253 10.75 7 11.0102 7 11.297C7 11.8093 7.66761 14.3503 10.1085 17.7109C11.7357 20.0059 14.0284 21.25 16.1146 21.25C17.3664 21.25 17.5212 20.9737 17.5212 20.4978V18.7632C17.5212 18.2105 17.6398 18.1002 18.0361 18.1002C18.3282 18.1002 18.8289 18.2437 19.9972 19.3502C21.3324 20.6617 21.5525 21.25 22.3035 21.25H24.2727C24.8354 21.25 25.1167 20.9737 24.9544 20.4284C24.7768 19.8849 24.1394 19.0964 23.2935 18.1617C22.8345 17.6289 22.146 17.0552 21.9374 16.7683C21.6454 16.3994 21.7288 16.2355 21.9374 15.9077C21.9374 15.9077 24.3366 12.588 24.5869 11.461C24.7121 11.0511 24.5869 10.75 23.9914 10.75H22.0222C21.5215 10.75 21.2907 11.0102 21.1655 11.297C21.1655 11.297 20.1641 13.6945 18.7455 15.2519C18.2865 15.7027 18.0779 15.8461 17.8275 15.8461C17.7023 15.8461 17.5212 15.7027 17.5212 15.2929V11.461C17.5212 10.9692 17.3759 10.75 16.9586 10.75H13.8641C13.5512 10.75 13.363 10.9782 13.363 11.1946C13.363 11.6608 14.0723 11.7683 14.1454 13.0798V15.9282C14.1454 16.5526 14.0306 16.6659 13.7803 16.6659C13.1127 16.6659 11.4888 14.2576 10.5257 11.502C10.337 10.9664 10.1476 10.75 9.64437 10.75Z"/>
    </symbol>

    <symbol id="scial-ytb" viewBox="0 0 32 32">
        <circle cx="16" cy="16" r="16" fill="#C3C9E1"/>
        <g clip-path="url(#clip0_4922_111847)">
        <path fill-rule="evenodd" clip-rule="evenodd" d="M24.0494 10.2062C24.3281 10.4958 24.526 10.8544 24.6232 11.2458C24.8827 12.6962 25.0087 14.1677 24.9995 15.6415C25.0047 17.0933 24.8787 18.5425 24.6232 19.9712C24.526 20.3626 24.3281 20.7212 24.0494 21.0108C23.7707 21.3004 23.4211 21.5108 23.036 21.6206C21.6288 22 16 22 16 22C16 22 10.3712 22 8.964 21.6206C8.58669 21.5166 8.24239 21.3162 7.96435 21.0388C7.68632 20.7614 7.48395 20.4164 7.37681 20.0372C7.11727 18.5868 6.99129 17.1153 7.00047 15.6415C6.9933 14.1787 7.11927 12.7184 7.37681 11.2788C7.474 10.8874 7.67193 10.5288 7.95061 10.2392C8.22929 9.94955 8.57886 9.7392 8.964 9.62937C10.3712 9.25 16 9.25 16 9.25C16 9.25 21.6288 9.25 23.036 9.59638C23.4211 9.70622 23.7707 9.91656 24.0494 10.2062ZM18.6103 15.6559L14.2978 18.1084V13.2034L18.6103 15.6559Z"/>
        </g>
        <defs>
        <clipPath id="clip0_4922_111847">
        <rect width="18" height="18" fill="white" transform="translate(7 7)"/>
        </clipPath>
        </defs>
    </symbol>

    <symbol id="anhor" viewBox="0 0 50 50">
        <circle cx="25" cy="25" r="24.5" fill="#606FAE" stroke="#384B9A"/>
        <path d="M25.3536 15.6464C25.1583 15.4512 24.8417 15.4512 24.6464 15.6464L21.4645 18.8284C21.2692 19.0237 21.2692 19.3403 21.4645 19.5355C21.6597 19.7308 21.9763 19.7308 22.1716 19.5355L25 16.7071L27.8284 19.5355C28.0237 19.7308 28.3403 19.7308 28.5355 19.5355C28.7308 19.3403 28.7308 19.0237 28.5355 18.8284L25.3536 15.6464ZM24.5 16L24.5 36L25.5 36L25.5 16L24.5 16Z" fill="white"/>
    </symbol>

    <symbol id="chevron-right" viewBox="0 0 9 18">
        <path d="M1.30496 17.7545C1.02633 18.061 0.551994 18.0836 0.245501 17.8049C-0.0609925 17.5263 -0.08358 17.052 0.19505 16.7455L7.23641 9L0.195049 1.25451C-0.0835814 0.948017 -0.060994 0.473681 0.245499 0.195049C0.551992 -0.0835782 1.02633 -0.0609933 1.30496 0.2455L8.80495 8.4955C9.06501 8.78156 9.06501 9.21844 8.80495 9.5045L1.30496 17.7545Z"/>
    </symbol>

    <symbol id="icon-edit" viewBox="0 0 18 18">
        <path d="M16.3559 0.59936C15.3892 -0.244009 13.8782 -0.190899 12.9811 0.717983L12.206 1.50326L16.5874 5.32531L17.3625 4.54003C18.2596 3.63115 18.2031 2.21067 17.2363 1.3673L16.3559 0.59936Z"/>
        <path d="M11.6061 2.11098L15.9875 5.93303L5.19 16.8723L5.78967 16.2646L1.40838 12.4427L11.6061 2.11098Z"/>
        <path d="M5.19 16.8723L0 18L0.808594 13.0505L5.19 16.8723Z"/>
    </symbol>

    <symbol id="icon-passoword" viewBox="0 0 18 18">
        <path fill-rule="evenodd" clip-rule="evenodd" d="M3.17068 0.550781L2.04705 1.42138L14.4656 17.4492L15.5892 16.5786L14.119 14.6811C15.8979 13.4693 17.2317 11.6525 17.8245 9.52671C16.7382 5.63242 13.1647 2.77535 8.92396 2.77535C7.68577 2.77535 6.50446 3.01891 5.42534 3.46074L3.17068 0.550781ZM6.6218 5.00494L8.06679 6.86991C8.33682 6.78289 8.62481 6.73589 8.92378 6.73589C10.4654 6.73589 11.7151 7.9856 11.7151 9.52721C11.7151 10.0764 11.5565 10.5885 11.2826 11.0203L12.7271 12.8847C13.5174 11.9901 13.9969 10.8147 13.9969 9.5272C13.9969 6.72529 11.7256 4.4539 8.92365 4.4539C8.09494 4.4539 7.31265 4.65259 6.6218 5.00494ZM0.0231934 9.52766C0.608275 7.42931 1.91544 5.63203 3.66004 4.42049L5.06478 6.2335C4.30757 7.11979 3.85035 8.2701 3.85035 9.5272C3.85035 12.3291 6.12174 14.6005 8.92365 14.6005C9.72227 14.6005 10.4778 14.416 11.1499 14.0872L12.3422 15.626C11.2848 16.0473 10.1313 16.279 8.9237 16.279C4.68294 16.279 1.10949 13.4219 0.0231934 9.52766ZM6.13246 9.52721C6.13246 9.0098 6.27324 8.52527 6.51858 8.10984L9.69573 12.2104C9.45057 12.2808 9.19158 12.3185 8.92378 12.3185C7.38218 12.3185 6.13246 11.0688 6.13246 9.52721Z"/>
    </symbol>

    <symbol id="icon-star" viewBox="0 0 18 17">
        <path d="M9 0L11.3805 5.72348L17.5595 6.21885L12.8518 10.2515L14.2901 16.2812L9 13.05L3.70993 16.2812L5.14822 10.2515L0.440492 6.21885L6.61947 5.72348L9 0Z"/>
    </symbol>



        <!-- <svg class="icon-star">
            <use xlink:href="css/sprite.svg#icon-star"></use>
        </svg> -->

</svg>