<svg width="187" height="32" viewBox="0 0 187 32" fill="none" xmlns="http://www.w3.org/2000/svg">
<path fill-rule="evenodd" clip-rule="evenodd" d="M107.574 0C108.945 0 110.279 0.228452 111.574 0.685899C112.793 1.14276 113.936 1.82858 114.926 2.70462C116.983 4.64744 118.126 7.35153 118.05 10.1704C118.088 11.6181 117.783 13.1035 117.212 14.4369C116.145 16.8749 114.126 18.7412 111.612 19.6555C109.06 20.6081 106.203 20.6081 103.651 19.6555C102.432 19.1987 101.289 18.5128 100.299 17.6368C99.3461 16.7225 98.546 15.6562 98.0132 14.4369C96.8705 11.7323 96.8705 8.68502 98.0132 5.98038C99.0794 3.54242 101.099 1.6761 103.613 0.761791C104.87 0.304933 106.241 0.0382701 107.574 0.0759491V0ZM103.346 10.171C103.308 10.8945 103.46 11.6181 103.689 12.2657C103.918 12.8374 104.222 13.3325 104.641 13.7893C105.022 14.2085 105.479 14.5135 106.012 14.7037C106.507 14.8944 107.041 15.0086 107.613 15.0086C108.146 15.0086 108.679 14.8944 109.212 14.7037C109.746 14.5135 110.203 14.1702 110.546 13.7893C110.964 13.3707 111.269 12.8374 111.498 12.2657C111.764 11.5804 111.879 10.8945 111.841 10.171C111.841 9.44683 111.727 8.76155 111.498 8.07567C111.269 7.5046 110.964 7.00889 110.546 6.55203C110.165 6.13286 109.707 5.82846 109.212 5.63771C108.717 5.44755 108.184 5.33334 107.613 5.33334C107.079 5.33334 106.546 5.44755 106.012 5.63771C105.479 5.86614 105.022 6.17112 104.641 6.55203C104.222 7.00889 103.918 7.5046 103.689 8.07567C103.423 8.76155 103.308 9.44683 103.346 10.171ZM83.2713 16.799V5.371C83.843 1.98106 84.719 0.914292 87.7663 0.456845H98.1274L97.5558 3.73318C97.2514 5.10434 96.1087 6.09461 94.7369 6.24709H92.0705C89.7468 6.09461 89.214 6.70452 89.2517 9.14247V19.884H86.3569C84.2239 19.7697 83.3096 18.7035 83.3478 16.8366L83.2713 16.799ZM62.4348 16.1131V0.419186H65.3302C67.044 0.419186 67.9966 1.44769 68.225 3.46647V10.0944L72.0341 2.59043C72.6058 1.21927 73.9769 0.342651 75.4623 0.419186C77.3292 0.571669 78.8146 2.09531 78.8911 3.9616V19.808H76.3007C74.5863 19.808 73.4818 18.8937 73.1769 16.7607V10.1327L69.2918 17.7892C68.7201 19.1221 67.3489 19.9605 65.863 19.8462C63.9584 19.5795 62.5113 18.0176 62.4348 16.1131ZM0.154297 16.494V0.800082H3.01081C4.72521 0.800082 5.67723 1.82859 5.90625 3.84736V10.4753L9.75361 2.97133C10.3247 1.60017 11.6965 0.723546 13.1818 0.800082C15.0481 0.952564 16.5341 2.47621 16.61 4.3425V20.1889H14.0196C12.3058 20.1889 11.2007 19.2746 10.8964 17.1033V10.4753L7.0107 18.1318C6.43963 19.4653 5.06785 20.3031 3.58247 20.1889C1.67791 19.9605 0.230244 18.3986 0.154297 16.494ZM21.3335 17.3318V0.800082H24.3048C25.9044 0.723546 27.2378 1.94284 27.3138 3.50476C27.3138 3.65724 27.3138 3.77142 27.3138 3.92331V7.69478H31.4661V0.800082H34.285C35.7704 0.571653 37.1798 1.60019 37.3706 3.08557C37.4082 3.314 37.4082 3.54243 37.3706 3.80913V20.2272H34.3609C32.799 20.3031 31.4662 19.0844 31.4279 17.5225C31.4279 17.4466 31.4279 17.37 31.4279 17.2941V12.5706H27.3138V20.1889H24.419C22.8188 20.2648 21.4094 19.0079 21.3335 17.3318ZM48.6837 0.914322C50.0931 0.914322 51.5402 1.10446 52.8737 1.52364C54.1307 1.90455 55.3117 2.51387 56.302 3.35223C57.2545 4.19 58.0163 5.21856 58.4732 6.39956C59.54 9.10421 59.54 12.1515 58.4732 14.8561C57.9781 15.9989 57.2545 17.0274 56.302 17.8652C55.3117 18.7029 54.1307 19.3129 52.8737 19.6938C51.5026 20.1124 50.0931 20.3414 48.6837 20.3031H41.865V6.93293H44.4554C46.7409 6.93293 47.7311 7.84722 47.8836 9.40855V15.4272H48.5695C49.8647 15.5038 51.0834 15.0086 51.9977 14.0943C52.7978 13.1041 53.217 11.8465 53.1404 10.5896C53.217 9.29437 52.7978 8.03742 51.9977 7.04717C51.0834 6.13286 49.8647 5.67597 48.5695 5.71424L44.4937 5.59948C42.2082 5.59948 40.913 4.22829 40.608 1.52364V0.876031H48.8739L48.6837 0.914322ZM130.277 6.59027V15.0463C130.81 18.4368 131.725 19.503 134.734 19.9605H143.534L142.962 16.6848C142.658 15.2753 141.438 14.2844 139.991 14.1702H139C136.677 14.3227 136.144 13.7134 136.182 11.3137V6.59027V3.54299C136.182 1.67611 135.344 0.609939 133.172 0.495135H130.315V6.59027H130.277ZM151.304 3.46647V19.808H148.447C146.314 19.6938 145.4 18.627 145.438 16.7607V0.419186H148.333C150.466 0.533401 151.342 1.60018 151.304 3.46647ZM154.694 3.46647V16.7607C154.694 18.627 155.57 19.6938 157.704 19.808H160.599V12.1897H161.78C163.227 12.1515 164.446 11.1612 164.789 9.75179L165.36 7.96143H160.637V4.76168H162.351C162.732 4.72341 163.113 4.72341 163.494 4.76168H166.16C167.608 4.68515 168.827 3.65663 169.131 2.2472L169.703 0.456845H157.742C155.609 0.571648 154.694 1.63788 154.733 3.50476L154.694 3.46647ZM170.846 3.46647V16.7607C170.846 18.627 171.722 19.6938 173.855 19.808H182.197C183.645 19.7321 184.826 18.7035 185.168 17.2941L185.739 15.5037H176.75V12.1132H177.93C179.378 12.0373 180.559 11.0087 180.864 9.59931L181.435 7.80896H176.712V4.60921H178.426C178.807 4.57094 179.187 4.57094 179.568 4.60921H182.235C183.682 4.53326 184.863 3.50473 185.207 2.0953L185.778 0.304946H173.817C171.683 0.419161 170.769 1.48594 170.846 3.35223V3.46647Z" fill="#384B9A"/>
<path fill-rule="evenodd" clip-rule="evenodd" d="M3.08551 31.779H1.82859V26.7512H0V25.7227H4.95181V26.7512H3.08551V31.779Z" fill="#384B9A"/>
<path fill-rule="evenodd" clip-rule="evenodd" d="M8.34124 25.5703C9.14133 25.5703 11.2749 25.9129 11.2749 28.7701C11.2749 31.5889 9.14133 31.9699 8.34124 31.9699C7.54174 31.9699 5.4082 31.6266 5.4082 28.7701C5.44647 25.9129 7.54174 25.5703 8.34124 25.5703ZM8.34124 30.8648C9.02712 30.8648 9.9797 30.4462 9.9797 28.7318C9.9797 27.0557 9.02712 26.5988 8.34124 26.5988C7.65595 26.5988 6.6657 27.0174 6.6657 28.7318C6.70338 30.4462 7.65595 30.8648 8.34124 30.8648Z" fill="#384B9A"/>
<path fill-rule="evenodd" clip-rule="evenodd" d="M13.5226 31.779H12.2656V25.7227H15.0462C16.2272 25.7227 16.9131 26.4462 16.9131 27.6655C16.9131 28.1983 16.6081 29.6077 14.9702 29.6077H13.5226V31.779ZM13.5226 28.5415H14.7036C15.5414 28.5415 15.6556 27.9699 15.6556 27.589C15.6556 26.9796 15.3129 26.7512 14.5511 26.7512H13.5226V28.5415Z" fill="#384B9A"/>
<path fill-rule="evenodd" clip-rule="evenodd" d="M22.2468 25.7227V26.7512H19.1612V31.779H17.9043V25.7227H22.2468Z" fill="#384B9A"/>
<path fill-rule="evenodd" clip-rule="evenodd" d="M25.7495 25.5703C26.5496 25.5703 28.6825 25.9129 28.6825 28.7701C28.6825 31.5889 26.5496 31.9699 25.7495 31.9699C24.95 31.9699 22.8164 31.6266 22.8164 28.7701C22.8547 25.9129 24.95 25.5703 25.7495 25.5703ZM25.7495 30.8648C26.4354 30.8648 27.3873 30.4462 27.3873 28.7318C27.3873 27.0557 26.4354 26.5988 25.7495 26.5988C25.0642 26.5988 24.1116 27.0174 24.1116 28.7318C24.1116 30.4462 25.0642 30.8648 25.7495 30.8648Z" fill="#384B9A"/>
<path fill-rule="evenodd" clip-rule="evenodd" d="M29.6738 25.7227H32.6829C34.1688 25.7227 34.5497 26.637 34.5497 27.2463C34.5497 28.1223 34.054 28.3891 33.8256 28.5033C34.5874 28.77 34.7782 29.3793 34.7782 29.9503C34.7782 30.4837 34.5874 31.7407 32.3402 31.7407L29.7115 31.7413V25.7227H29.6738ZM30.9308 28.0841H32.4162C32.9113 28.0841 33.3305 27.8939 33.3305 27.3988C33.3305 26.9036 32.9878 26.7512 32.3785 26.7512H30.9308V28.0841ZM30.9308 30.7128H32.4921C33.102 30.7128 33.483 30.4461 33.483 29.8367C33.483 29.3033 33.0255 29.1126 32.5686 29.1126H30.9685V30.7128H30.9308Z" fill="#384B9A"/>
<path fill-rule="evenodd" clip-rule="evenodd" d="M38.435 25.5703C39.2351 25.5703 41.3681 25.9129 41.3681 28.7701C41.3681 31.5889 39.2351 31.9699 38.435 31.9699C37.635 31.9699 35.502 31.6266 35.502 28.7701C35.502 25.9129 37.5973 25.5703 38.435 25.5703ZM38.435 30.8648C39.1209 30.8648 40.0729 30.4462 40.0729 28.7318C40.0729 27.0557 39.1209 26.5988 38.435 26.5988C37.7498 26.5988 36.7972 27.0174 36.7972 28.7318C36.7589 30.4462 37.7115 30.8648 38.435 30.8648Z" fill="#384B9A"/>
<path d="M44.4142 29.1504H42.0527V30.1029H44.4142V29.1504Z" fill="#384B9A"/>
<path fill-rule="evenodd" clip-rule="evenodd" d="M46.6261 31.779H45.3691V25.7227H48.1498C49.3308 25.7227 50.016 26.4462 50.016 27.6655C50.016 28.1983 49.7117 29.6077 48.0738 29.6077H46.6261V31.779ZM46.6261 28.5415H47.8071C48.6449 28.5415 48.7591 27.9699 48.7591 27.589C48.7591 26.9796 48.4165 26.7512 47.6546 26.7512H46.6261V28.5415Z" fill="#384B9A"/>
<path fill-rule="evenodd" clip-rule="evenodd" d="M53.7869 25.7227L55.9199 31.779H54.5487L54.1678 30.522H51.92L51.5014 31.779H50.168L52.3392 25.7227H53.7869ZM52.2633 29.4553H53.9011L53.0628 27.0555H53.0633L52.2633 29.4553Z" fill="#384B9A"/>
<path fill-rule="evenodd" clip-rule="evenodd" d="M56.4911 27.5131C56.5671 26.5223 57.2912 25.5703 58.8526 25.5703C60.5287 25.5703 61.1763 26.4846 61.1763 27.1699C61.1763 27.9317 60.7572 28.3891 60.1101 28.5793C60.7572 28.6935 61.4047 29.2269 61.4047 30.1795C61.4047 31.0938 60.6429 31.9699 58.9291 31.9699C56.8338 31.9699 56.377 30.9414 56.377 29.9511H57.5574C57.5574 30.4839 57.7858 30.9413 58.8909 30.9413C59.6527 30.9413 60.1478 30.5987 60.1478 30.0653C60.1478 29.4559 59.6527 29.151 59.0433 29.151H58.4717V28.1225H59.0433C59.6527 28.1225 60.0335 27.8175 60.0335 27.3224C60.0335 26.8655 59.6144 26.6365 58.9291 26.6365C58.0907 26.6365 57.7864 26.9797 57.7098 27.5508H56.4911V27.5131Z" fill="#384B9A"/>
<path fill-rule="evenodd" clip-rule="evenodd" d="M62.3574 25.7227H65.3664C66.8524 25.7227 67.2333 26.637 67.2333 27.2463C67.2333 28.1223 66.7382 28.3891 66.5092 28.5033C67.271 28.77 67.4618 29.3793 67.4618 29.9503C67.4618 30.4837 67.271 31.7407 65.0238 31.7407L62.3957 31.7413V25.7227H62.3574ZM63.6143 28.0841H65.0998C65.5955 28.0841 66.014 27.8939 66.014 27.3988C66.014 26.9036 65.6714 26.7512 65.062 26.7512H63.6143V28.0841ZM63.6143 30.7128H65.1763C65.7856 30.7128 66.1665 30.4461 66.1665 29.8367C66.1665 29.3033 65.7097 29.1126 65.2522 29.1126H63.6526V30.7128H63.6143Z" fill="#384B9A"/>
<path fill-rule="evenodd" clip-rule="evenodd" d="M73.2898 25.7219V31.7782H72.0329V26.7881H70.3185V29.3785C70.3185 30.9405 69.9376 31.969 68.7189 31.969C68.4139 31.969 68.1478 31.9307 67.957 31.8924V30.8639C68.033 30.9022 68.1855 30.9022 68.338 30.9022C68.9096 30.9022 69.0615 30.5213 69.0615 29.1878V25.6836H73.2898V25.7219Z" fill="#384B9A"/>
<path fill-rule="evenodd" clip-rule="evenodd" d="M78.9657 25.7227V26.7512H75.7276V28.0081H78.699V29.0366H75.7276V30.7128H79.1181V31.779H74.4707V25.7227H78.9657Z" fill="#384B9A"/>
<path fill-rule="evenodd" clip-rule="evenodd" d="M81.3273 28.1606L83.651 25.7227H85.3271L82.8133 28.1983L85.4414 31.779H83.8035L81.9372 29.1126L81.3273 29.7219V31.779H80.0703V25.7227H81.3273V28.1606Z" fill="#384B9A"/>
<path fill-rule="evenodd" clip-rule="evenodd" d="M89.326 25.7227L91.4589 31.779H90.0878L89.7069 30.522H87.4591L87.0405 31.779H85.707L87.8783 25.7227H89.326ZM87.764 29.4553H89.4019L88.5641 27.0555L87.764 29.4553Z" fill="#384B9A"/>
<path fill-rule="evenodd" clip-rule="evenodd" d="M94.4305 31.779H93.1735V26.7512H91.3066V25.7227H96.2591V26.7512H94.4305V31.779Z" fill="#384B9A"/>
<path fill-rule="evenodd" clip-rule="evenodd" d="M101.477 25.7227V26.7512H98.2393V28.0081H101.211V29.0366H98.2393V30.7128H101.63V31.779H96.9824V25.7227H101.477Z" fill="#384B9A"/>
<path fill-rule="evenodd" clip-rule="evenodd" d="M107.46 25.7219V31.7782H106.203V26.7881H104.488V29.3785C104.488 30.9405 104.107 31.969 102.889 31.969C102.584 31.969 102.317 31.9307 102.127 31.8924V30.8639C102.203 30.9022 102.355 30.9022 102.508 30.9022C103.079 30.9022 103.231 30.5213 103.231 29.1878V25.6836H107.46V25.7219Z" fill="#384B9A"/>
<path fill-rule="evenodd" clip-rule="evenodd" d="M109.935 28.0081H111.535C112.716 28.0081 113.63 28.7317 113.63 29.9127C113.63 31.0937 112.754 31.779 111.535 31.779H108.678V25.7227H109.935V28.0081ZM109.935 30.7128H111.382C111.992 30.7128 112.335 30.3319 112.335 29.8367C112.335 29.3033 111.954 29.0366 111.382 29.0366H109.935V30.7128Z" fill="#384B9A"/>
<path fill-rule="evenodd" clip-rule="evenodd" d="M115.838 28.0081H118.2V25.7227H119.495V31.779H118.2V29.0366H115.838V31.779H114.543V25.7227H115.838V28.0081Z" fill="#384B9A"/>
<path fill-rule="evenodd" clip-rule="evenodd" d="M121.933 28.0081H123.532C124.713 28.0081 125.628 28.7317 125.628 29.9127C125.628 31.0937 124.752 31.779 123.532 31.779H120.676V25.7227H121.933V28.0081ZM121.933 30.7128H123.38C123.989 30.7128 124.332 30.3319 124.332 29.8367C124.332 29.3033 123.951 29.0366 123.38 29.0366H121.933V30.7128ZM127.951 31.779H126.694V25.7227H127.951V31.779Z" fill="#384B9A"/>
<path fill-rule="evenodd" clip-rule="evenodd" d="M130.391 29.9507L132.828 25.7224H134.276V31.7787H133.019V27.4744L130.543 31.7787H129.172V25.7224H130.429V29.9507H130.391ZM131.686 24.5414C132.41 24.5414 132.486 24.1982 132.524 23.9697H133.095C133.058 24.313 132.828 25.189 131.724 25.189C130.62 25.189 130.353 24.313 130.353 23.9697H130.924C130.886 24.1982 130.962 24.5414 131.686 24.5414Z" fill="#384B9A"/>
<path fill-rule="evenodd" clip-rule="evenodd" d="M139.074 28.1606L141.398 25.7227H143.036L140.56 28.1983L143.188 31.779H141.55L139.646 29.1126L139.074 29.7219V31.779H137.779V25.7227H139.074V28.1606Z" fill="#384B9A"/>
<path fill-rule="evenodd" clip-rule="evenodd" d="M146.351 25.5703C147.151 25.5703 149.284 25.9129 149.284 28.7701C149.284 31.5889 147.151 31.9699 146.351 31.9699C145.551 31.9699 143.418 31.6266 143.418 28.7701C143.418 25.9129 145.551 25.5703 146.351 25.5703ZM146.351 30.8648C147.036 30.8648 148.027 30.4462 148.027 28.7318C148.027 27.0557 147.075 26.5988 146.351 26.5988C145.627 26.5988 144.675 27.0174 144.675 28.7318C144.675 30.4462 145.665 30.8648 146.351 30.8648Z" fill="#384B9A"/>
<path fill-rule="evenodd" clip-rule="evenodd" d="M152.101 25.7227L153.206 30.4838L154.31 25.7227H156.139V31.779H154.958V26.7129L153.815 31.779H152.558L151.454 26.7129H151.415V31.779H150.234V25.7227H152.101Z" fill="#384B9A"/>
<path fill-rule="evenodd" clip-rule="evenodd" d="M162.236 25.7227V31.779H160.979V26.7512H158.579V31.779H157.322V25.7227H162.236Z" fill="#384B9A"/>
<path fill-rule="evenodd" clip-rule="evenodd" d="M168.292 25.7219V31.7782H167.035V26.7881H165.32V29.3785C165.32 30.9405 164.94 31.969 163.721 31.969C163.454 31.969 163.149 31.9307 162.959 31.8924V30.8639C163.035 30.9022 163.187 30.9022 163.34 30.9022C163.911 30.9022 164.063 30.5213 164.063 29.1878V25.6836H168.292V25.7219Z" fill="#384B9A"/>
<path fill-rule="evenodd" clip-rule="evenodd" d="M174.005 25.7227V26.7512H170.767V28.0081H173.739V29.0366H170.767V30.7128H174.12V31.779H169.473V25.7227H174.005Z" fill="#384B9A"/>
<path fill-rule="evenodd" clip-rule="evenodd" d="M176.367 28.1606L178.69 25.7227H180.328L177.852 28.1983L180.48 31.779H178.843L176.976 29.1126L176.367 29.7219V31.779H175.109V25.7227H176.367V28.1606Z" fill="#384B9A"/>
<path fill-rule="evenodd" clip-rule="evenodd" d="M184.899 27.7033C184.785 27.3224 184.594 26.6371 183.527 26.6371C182.918 26.6371 182.004 27.0557 182.004 28.7701C182.004 29.8369 182.461 30.8654 183.527 30.8654C184.251 30.8654 184.747 30.4462 184.899 29.6844H186.156C185.889 31.0173 185.051 31.9316 183.49 31.9316C181.852 31.9316 180.709 30.8271 180.709 28.7701C180.709 26.6365 181.928 25.5703 183.528 25.5703C185.356 25.5703 186.08 26.8272 186.156 27.7033H184.899Z" fill="#384B9A"/>
</svg>
